<svg xmlns="http://www.w3.org/2000/svg" xmlns:xlink="http://www.w3.org/1999/xlink" width="500" zoomAndPan="magnify" viewBox="0 0 375 374.999991" height="500" preserveAspectRatio="xMidYMid meet" version="1.0"><defs><g/><clipPath id="18e7aceb82"><path d="M 90.464844 110.605469 L 292 110.605469 L 292 211.855469 L 90.464844 211.855469 Z M 90.464844 110.605469 " clip-rule="nonzero"/></clipPath></defs><path fill="#ffffff" d="M 117.300781 201.449219 C 123.027344 201.40625 128.753906 201.425781 134.476562 201.425781 C 140.125 201.425781 145.769531 201.425781 151.417969 201.425781 C 153.035156 201.425781 153.035156 201.425781 153.035156 199.863281 C 153.035156 185.863281 153.046875 171.867188 153.019531 157.871094 C 153.019531 157 153.304688 156.414062 153.898438 155.828125 C 156.5 153.273438 159.046875 150.667969 161.65625 148.125 C 162.183594 147.609375 162.1875 147.351562 161.667969 146.84375 C 158.480469 143.714844 155.316406 140.566406 152.179688 137.394531 C 151.628906 136.839844 151.300781 136.863281 150.757812 137.40625 C 139.351562 148.835938 127.929688 160.25 116.496094 171.648438 C 116.054688 172.089844 115.953125 172.546875 115.957031 173.117188 C 115.964844 182.136719 115.984375 191.152344 115.941406 200.171875 C 115.9375 201.261719 116.3125 201.457031 117.300781 201.449219 " fill-opacity="1" fill-rule="nonzero"/><g clip-path="url(#18e7aceb82)"><path fill="#ffffff" d="M 229.625 171.535156 C 229.265625 171.683594 229.109375 171.261719 228.90625 171.058594 C 224.578125 166.75 220.261719 162.429688 215.945312 158.113281 C 214.476562 156.648438 213.015625 155.171875 211.527344 153.730469 C 211.011719 153.234375 210.761719 152.703125 210.769531 151.976562 C 210.796875 149.234375 210.773438 146.492188 210.785156 143.753906 C 210.785156 143.425781 210.628906 142.957031 211.054688 142.832031 C 211.367188 142.742188 211.550781 143.152344 211.769531 143.367188 C 217.472656 149.0625 223.171875 154.765625 228.894531 160.441406 C 229.550781 161.09375 229.894531 161.75 229.832031 162.699219 C 229.75 163.949219 229.8125 165.207031 229.8125 166.457031 C 229.8125 166.457031 229.816406 166.457031 229.816406 166.457031 C 229.816406 167.867188 229.824219 169.277344 229.808594 170.6875 C 229.808594 170.980469 229.980469 171.386719 229.625 171.535156 Z M 229.828125 202.867188 C 229.832031 203.679688 229.609375 203.941406 228.773438 203.9375 C 223.167969 203.902344 217.5625 203.898438 211.957031 203.9375 C 211.042969 203.941406 210.847656 203.628906 210.847656 202.78125 C 210.878906 195.335938 210.867188 187.890625 210.867188 180.445312 C 210.863281 180.445312 210.859375 180.445312 210.851562 180.445312 C 210.851562 173.039062 210.851562 165.632812 210.863281 158.226562 C 210.863281 157.867188 210.652344 157.351562 211.097656 157.179688 C 211.453125 157.042969 211.679688 157.507812 211.910156 157.742188 C 217.703125 163.515625 223.472656 169.3125 229.273438 175.074219 C 229.71875 175.519531 229.820312 175.964844 229.816406 176.53125 C 229.808594 185.308594 229.800781 194.085938 229.828125 202.867188 Z M 228.734375 209.0625 C 225.917969 209 223.097656 209.039062 220.28125 209.039062 C 217.460938 209.042969 214.640625 208.992188 211.824219 209.066406 C 210.699219 209.097656 210.785156 208.464844 210.765625 207.730469 C 210.75 207 210.757812 206.480469 211.777344 206.488281 C 217.453125 206.53125 223.128906 206.542969 228.804688 206.480469 C 230.089844 206.464844 229.75 207.238281 229.828125 207.929688 C 229.921875 208.785156 229.652344 209.085938 228.734375 209.0625 Z M 290.410156 209.011719 C 271.625 209.042969 252.839844 209.035156 234.054688 209.035156 C 233.699219 209.035156 233.347656 209.03125 232.996094 209.019531 C 232.699219 209.007812 232.492188 208.894531 232.386719 208.578125 C 231.941406 207.242188 232.441406 206.507812 233.820312 206.507812 C 250.800781 206.507812 267.78125 206.507812 284.761719 206.507812 C 285.152344 206.507812 285.546875 206.507812 285.9375 206.496094 C 286.179688 206.492188 286.367188 206.433594 286.480469 206.15625 C 286.996094 204.851562 286.367188 203.914062 284.953125 203.914062 C 267.855469 203.917969 250.757812 203.914062 233.65625 203.941406 C 232.699219 203.941406 232.378906 203.699219 232.386719 202.699219 C 232.421875 194.933594 232.402344 187.171875 232.40625 179.40625 C 232.410156 179.121094 232.25 178.769531 232.691406 178.53125 C 239.152344 184.613281 245.011719 191.339844 251.890625 197.515625 C 251.738281 196.023438 252.414062 194.6875 251.464844 193.671875 C 249.140625 191.171875 246.773438 188.703125 244.289062 186.363281 C 240.59375 182.875 237.171875 179.113281 233.4375 175.667969 C 232.496094 174.796875 232.351562 173.832031 232.378906 172.667969 C 232.4375 170.238281 232.394531 167.808594 232.410156 165.375 C 232.410156 165.050781 232.257812 164.664062 232.628906 164.390625 C 233.296875 164.589844 233.480469 165.269531 233.910156 165.695312 C 238.808594 170.554688 243.660156 175.457031 248.554688 180.3125 C 251.050781 182.792969 253.449219 185.375 256.117188 187.6875 C 256.363281 187.898438 256.828125 188.445312 256.875 187.699219 C 256.96875 186.304688 257.132812 184.957031 255.863281 183.714844 C 249.085938 177.085938 242.421875 170.347656 235.71875 163.648438 C 234.945312 162.878906 234.339844 161.828125 233.523438 161.269531 C 232.546875 160.605469 232.398438 159.9375 232.398438 158.964844 C 232.414062 154.0625 232.402344 149.164062 232.402344 144.261719 C 232.402344 139.007812 232.40625 133.753906 232.398438 128.5 C 232.398438 128.09375 232.574219 127.605469 232.09375 127.324219 C 231.039062 126.714844 229.8125 127.410156 229.8125 128.625 C 229.8125 137.644531 229.8125 146.660156 229.808594 155.679688 C 229.808594 156.070312 229.8125 156.464844 229.796875 156.855469 C 229.777344 157.335938 229.421875 157.449219 229.222656 157.101562 C 228.855469 156.453125 228.214844 156.140625 227.726562 155.648438 C 222.992188 150.921875 218.332031 146.113281 213.453125 141.539062 C 211.429688 139.636719 210.644531 137.691406 210.714844 134.917969 C 210.910156 127.394531 210.785156 119.859375 210.769531 112.332031 C 210.769531 111.9375 210.976562 111.441406 210.46875 111.171875 C 209.402344 110.605469 208.28125 111.257812 208.28125 112.445312 C 208.277344 119.894531 208.28125 127.347656 208.269531 134.796875 C 208.269531 135.167969 208.410156 135.570312 208.011719 136.117188 C 203.378906 131.496094 198.78125 126.910156 193.929688 122.066406 C 194.199219 123.882812 193.585938 125.34375 195.082031 126.75 C 199.335938 130.75 203.378906 134.972656 207.503906 139.105469 C 207.894531 139.496094 208.21875 139.871094 208.214844 140.507812 C 208.179688 143.410156 208.199219 146.3125 208.191406 149.214844 C 208.191406 149.464844 208.308594 149.828125 207.957031 149.917969 C 207.65625 149.996094 207.5 149.679688 207.308594 149.492188 C 205.648438 147.832031 203.980469 146.175781 202.324219 144.503906 C 199.660156 141.808594 197 139.101562 194.136719 136.195312 C 193.722656 139.464844 193.75 139.53125 195.738281 141.519531 C 199.203125 144.980469 202.59375 148.527344 206.160156 151.878906 C 207.746094 153.371094 208.691406 154.863281 208.21875 157.082031 C 208.085938 157.71875 208.199219 158.410156 208.199219 159.074219 C 208.199219 173.542969 208.183594 188.011719 208.230469 202.480469 C 208.238281 203.726562 207.847656 203.976562 206.695312 203.953125 C 202.894531 203.882812 199.089844 203.960938 195.285156 203.894531 C 194.242188 203.878906 193.957031 204.175781 193.960938 205.210938 C 193.964844 206.214844 194.183594 206.554688 195.257812 206.535156 C 199.214844 206.46875 203.175781 206.503906 207.136719 206.515625 C 207.496094 206.519531 207.9375 206.335938 208.164062 206.835938 C 208.699219 208.03125 208.054688 209.042969 206.753906 209.042969 C 169.578125 209.042969 132.398438 209.042969 95.222656 209.042969 C 94.085938 209.042969 92.949219 209.03125 91.8125 209.039062 C 91.511719 209.042969 91.195312 208.992188 91.027344 209.382812 C 90.5 210.617188 91.113281 211.621094 92.425781 211.621094 C 158.503906 211.625 224.585938 211.625 290.667969 211.644531 C 291.550781 211.644531 291.871094 211.4375 291.933594 210.476562 C 292.019531 209.214844 291.546875 209.007812 290.410156 209.011719 " fill-opacity="1" fill-rule="nonzero"/></g><path fill="#ffffff" d="M 191.488281 161.726562 C 191.457031 160.839844 191.449219 160.304688 190.265625 160.3125 C 179.167969 160.359375 168.070312 160.359375 156.976562 160.316406 C 155.835938 160.3125 155.546875 160.632812 155.550781 161.753906 C 155.589844 175.394531 155.5625 189.039062 155.597656 202.679688 C 155.601562 203.734375 155.3125 203.980469 154.289062 203.976562 C 142.839844 203.941406 131.390625 203.960938 119.941406 203.953125 C 112.53125 203.945312 105.121094 203.914062 97.710938 203.90625 C 97.101562 203.90625 96.261719 203.613281 96.390625 204.789062 C 96.484375 205.613281 95.976562 206.5625 97.632812 206.554688 C 113.039062 206.488281 128.449219 206.515625 143.859375 206.515625 C 155.738281 206.515625 167.621094 206.515625 179.5 206.515625 C 183.148438 206.515625 186.792969 206.492188 190.441406 206.539062 C 191.273438 206.550781 191.515625 206.3125 191.480469 205.488281 C 191.414062 204 191.410156 202.507812 191.480469 201.019531 C 191.523438 200.121094 191.230469 199.933594 190.355469 199.9375 C 181.296875 199.976562 172.242188 199.949219 163.183594 199.980469 C 162.3125 199.984375 162.050781 199.761719 162.054688 198.867188 C 162.085938 187.300781 162.089844 175.734375 162.058594 164.171875 C 162.054688 163.164062 162.375 162.9375 163.328125 162.941406 C 172.308594 162.976562 181.285156 162.945312 190.265625 162.988281 C 191.277344 162.992188 191.523438 162.675781 191.488281 161.726562 " fill-opacity="1" fill-rule="nonzero"/><path fill="#ffffff" d="M 158.863281 154.511719 C 157.847656 155.515625 156.789062 156.476562 155.75 157.457031 C 155.832031 157.570312 155.914062 157.6875 156 157.804688 C 167.566406 157.804688 179.128906 157.800781 190.695312 157.816406 C 191.34375 157.816406 191.484375 157.5625 191.472656 156.980469 C 191.4375 155.6875 191.460938 154.390625 191.460938 153.097656 C 191.460938 143.140625 191.460938 133.179688 191.449219 123.222656 C 191.449219 122.914062 191.671875 122.460938 191.226562 122.308594 C 190.824219 122.167969 190.539062 122.539062 190.398438 122.828125 C 190.121094 123.40625 189.550781 123.691406 189.136719 124.089844 C 185.058594 128.003906 181.175781 132.105469 177.222656 136.144531 C 176.449219 136.933594 175.636719 137.6875 174.625 138.671875 C 174.625 137.195312 174.578125 136.03125 174.640625 134.871094 C 174.6875 133.941406 174.453125 133.515625 173.410156 133.582031 C 172.042969 133.671875 170.664062 133.660156 169.296875 133.582031 C 168.347656 133.527344 168.078125 133.871094 168.089844 134.78125 C 168.132812 137.957031 168.09375 141.136719 168.121094 144.308594 C 168.128906 144.992188 167.925781 145.480469 167.4375 145.964844 C 164.5625 148.796875 161.726562 151.667969 158.863281 154.511719 " fill-opacity="1" fill-rule="nonzero"/><path fill="#ffffff" d="M 97.847656 187.019531 C 98.125 186.570312 98.214844 186.34375 98.371094 186.1875 C 102.066406 182.507812 105.78125 178.847656 109.46875 175.160156 C 116.671875 167.964844 123.855469 160.75 131.054688 153.550781 C 139.246094 145.347656 147.441406 137.152344 155.632812 128.953125 C 155.796875 128.792969 156.078125 128.476562 156.0625 128.457031 C 155.566406 127.925781 155.085938 127.359375 154.5 126.9375 C 154.078125 126.636719 153.820312 127.164062 153.5625 127.421875 C 147.996094 132.882812 142.394531 138.3125 136.886719 143.832031 C 132.28125 148.445312 127.644531 153.027344 123.089844 157.691406 C 120.644531 160.195312 118.121094 162.628906 115.652344 165.117188 C 113.253906 167.539062 110.839844 169.957031 108.402344 172.339844 C 104.484375 176.167969 100.671875 180.097656 96.746094 183.914062 C 96.402344 184.246094 95.972656 184.632812 96.277344 185.121094 C 96.660156 185.730469 97.195312 186.25 97.847656 187.019531 " fill-opacity="1" fill-rule="nonzero"/><path fill="#ffffff" d="M 113.191406 174.652344 C 112.484375 175.453125 111.875 176.160156 111.246094 176.847656 C 110.984375 177.132812 110.929688 177.457031 110.933594 177.820312 C 110.9375 185.382812 110.9375 192.945312 110.941406 200.507812 C 110.941406 200.800781 110.855469 201.128906 111.238281 201.316406 C 112.40625 201.902344 113.53125 201.222656 113.53125 199.910156 C 113.53125 191.957031 113.53125 184.003906 113.523438 176.046875 C 113.523438 175.710938 113.625 175.351562 113.191406 174.652344 " fill-opacity="1" fill-rule="nonzero"/><path fill="#ffffff" d="M 184.429688 191.109375 C 186.03125 191.0625 187.636719 191.066406 189.242188 191.105469 C 189.9375 191.125 190.246094 190.921875 190.203125 190.183594 C 190.152344 189.363281 190.191406 188.539062 190.191406 187.71875 C 190.191406 186.816406 190.171875 185.917969 190.199219 185.019531 C 190.21875 184.414062 189.992188 184.1875 189.375 184.199219 C 187.695312 184.226562 186.011719 184.238281 184.328125 184.195312 C 183.542969 184.175781 183.300781 184.496094 183.316406 185.238281 C 183.351562 186.839844 183.363281 188.445312 183.316406 190.050781 C 183.292969 190.890625 183.628906 191.132812 184.429688 191.109375 " fill-opacity="1" fill-rule="nonzero"/><path fill="#ffffff" d="M 189.394531 174.945312 C 188.535156 174.976562 187.675781 174.953125 186.8125 174.953125 C 185.953125 174.949219 185.089844 174.96875 184.230469 174.945312 C 183.613281 174.925781 183.289062 175.09375 183.304688 175.796875 C 183.339844 177.480469 183.328125 179.164062 183.304688 180.847656 C 183.296875 181.484375 183.511719 181.757812 184.191406 181.742188 C 185.910156 181.703125 187.632812 181.710938 189.355469 181.734375 C 189.933594 181.738281 190.214844 181.578125 190.203125 180.941406 C 190.175781 179.21875 190.179688 177.496094 190.207031 175.777344 C 190.214844 175.175781 190.011719 174.921875 189.394531 174.945312 " fill-opacity="1" fill-rule="nonzero"/><path fill="#ffffff" d="M 154.476562 133.664062 C 154.117188 134.253906 152.691406 134.519531 153.859375 135.660156 C 157.050781 138.773438 160.203125 141.929688 163.367188 145.074219 C 163.644531 145.351562 163.953125 145.792969 164.332031 145.457031 C 164.832031 145.007812 165.449219 144.648438 165.804688 143.96875 C 165.394531 143.433594 165.066406 142.835938 164.585938 142.414062 C 161.480469 139.699219 158.71875 136.636719 155.761719 133.773438 C 155.304688 133.328125 154.890625 132.992188 154.476562 133.664062 " fill-opacity="1" fill-rule="nonzero"/><path fill="#ffffff" d="M 110.9375 156.585938 C 110.9375 159.589844 110.9375 162.597656 110.9375 165.667969 C 111.511719 165.609375 111.59375 165.238281 111.855469 165.074219 C 113.082031 164.316406 113.636719 163.289062 113.566406 161.773438 C 113.449219 159.308594 113.484375 156.835938 113.558594 154.367188 C 113.589844 153.320312 113.269531 153.035156 112.238281 153.039062 C 111.230469 153.042969 110.789062 153.28125 110.917969 154.351562 C 111.003906 155.085938 110.9375 155.839844 110.9375 156.585938 " fill-opacity="1" fill-rule="nonzero"/><g fill="#ffffff" fill-opacity="1"><g transform="translate(133.632268, 239.823032)"><g><path d="M 5.453125 -6.203125 C 5.953125 -6.203125 6.390625 -6.269531 6.765625 -6.40625 C 7.148438 -6.539062 7.472656 -6.722656 7.734375 -6.953125 C 7.992188 -7.191406 8.1875 -7.476562 8.3125 -7.8125 C 8.445312 -8.144531 8.515625 -8.507812 8.515625 -8.90625 C 8.515625 -9.726562 8.257812 -10.367188 7.75 -10.828125 C 7.25 -11.285156 6.484375 -11.515625 5.453125 -11.515625 L 3.390625 -11.515625 L 3.390625 -6.203125 Z M 5.453125 -12.890625 C 6.265625 -12.890625 6.972656 -12.796875 7.578125 -12.609375 C 8.179688 -12.421875 8.679688 -12.148438 9.078125 -11.796875 C 9.472656 -11.453125 9.769531 -11.035156 9.96875 -10.546875 C 10.164062 -10.054688 10.265625 -9.507812 10.265625 -8.90625 C 10.265625 -8.300781 10.15625 -7.75 9.9375 -7.25 C 9.726562 -6.75 9.421875 -6.316406 9.015625 -5.953125 C 8.617188 -5.597656 8.117188 -5.320312 7.515625 -5.125 C 6.921875 -4.925781 6.234375 -4.828125 5.453125 -4.828125 L 3.390625 -4.828125 L 3.390625 0 L 1.640625 0 L 1.640625 -12.890625 Z M 5.453125 -12.890625 "/></g></g></g><g fill="#ffffff" fill-opacity="1"><g transform="translate(145.773339, 239.823032)"><g><path d="M 8.5 -4.78125 L 6.46875 -10.03125 C 6.40625 -10.1875 6.34375 -10.367188 6.28125 -10.578125 C 6.21875 -10.785156 6.15625 -11.003906 6.09375 -11.234375 C 5.96875 -10.753906 5.835938 -10.351562 5.703125 -10.03125 L 3.6875 -4.78125 Z M 12.125 0 L 10.78125 0 C 10.625 0 10.5 -0.0351562 10.40625 -0.109375 C 10.3125 -0.191406 10.238281 -0.289062 10.1875 -0.40625 L 8.984375 -3.53125 L 3.1875 -3.53125 L 1.984375 -0.40625 C 1.953125 -0.300781 1.882812 -0.207031 1.78125 -0.125 C 1.675781 -0.0390625 1.550781 0 1.40625 0 L 0.046875 0 L 5.21875 -12.890625 L 6.96875 -12.890625 Z M 12.125 0 "/></g></g></g><g fill="#ffffff" fill-opacity="1"><g transform="translate(159.29142, 239.823032)"><g><path d="M 8.96875 -1.46875 L 8.96875 0 L 1.640625 0 L 1.640625 -12.890625 L 3.390625 -12.890625 L 3.390625 -1.46875 Z M 8.96875 -1.46875 "/></g></g></g><g fill="#ffffff" fill-opacity="1"><g transform="translate(169.866481, 239.823032)"><g><path d="M 13.5625 -6.4375 C 13.5625 -5.476562 13.40625 -4.59375 13.09375 -3.78125 C 12.789062 -2.976562 12.359375 -2.285156 11.796875 -1.703125 C 11.242188 -1.117188 10.578125 -0.664062 9.796875 -0.34375 C 9.015625 -0.0195312 8.148438 0.140625 7.203125 0.140625 C 6.253906 0.140625 5.390625 -0.0195312 4.609375 -0.34375 C 3.828125 -0.664062 3.15625 -1.117188 2.59375 -1.703125 C 2.039062 -2.285156 1.609375 -2.976562 1.296875 -3.78125 C 0.992188 -4.59375 0.84375 -5.476562 0.84375 -6.4375 C 0.84375 -7.40625 0.992188 -8.289062 1.296875 -9.09375 C 1.609375 -9.90625 2.039062 -10.601562 2.59375 -11.1875 C 3.15625 -11.769531 3.828125 -12.222656 4.609375 -12.546875 C 5.390625 -12.878906 6.253906 -13.046875 7.203125 -13.046875 C 8.148438 -13.046875 9.015625 -12.878906 9.796875 -12.546875 C 10.578125 -12.222656 11.242188 -11.769531 11.796875 -11.1875 C 12.359375 -10.601562 12.789062 -9.90625 13.09375 -9.09375 C 13.40625 -8.289062 13.5625 -7.40625 13.5625 -6.4375 Z M 11.765625 -6.4375 C 11.765625 -7.226562 11.65625 -7.9375 11.4375 -8.5625 C 11.226562 -9.195312 10.925781 -9.734375 10.53125 -10.171875 C 10.132812 -10.609375 9.65625 -10.941406 9.09375 -11.171875 C 8.53125 -11.410156 7.898438 -11.53125 7.203125 -11.53125 C 6.515625 -11.53125 5.882812 -11.410156 5.3125 -11.171875 C 4.75 -10.941406 4.269531 -10.609375 3.875 -10.171875 C 3.476562 -9.734375 3.171875 -9.195312 2.953125 -8.5625 C 2.734375 -7.9375 2.625 -7.226562 2.625 -6.4375 C 2.625 -5.644531 2.734375 -4.9375 2.953125 -4.3125 C 3.171875 -3.6875 3.476562 -3.15625 3.875 -2.71875 C 4.269531 -2.28125 4.75 -1.945312 5.3125 -1.71875 C 5.882812 -1.488281 6.515625 -1.375 7.203125 -1.375 C 7.898438 -1.375 8.53125 -1.488281 9.09375 -1.71875 C 9.65625 -1.945312 10.132812 -2.28125 10.53125 -2.71875 C 10.925781 -3.15625 11.226562 -3.6875 11.4375 -4.3125 C 11.65625 -4.9375 11.765625 -5.644531 11.765625 -6.4375 Z M 11.765625 -6.4375 "/></g></g></g><g fill="#ffffff" fill-opacity="1"><g transform="translate(185.607577, 239.823032)"><g><path d="M 12.125 -12.890625 L 6.875 0 L 5.3125 0 L 0.046875 -12.890625 L 1.453125 -12.890625 C 1.609375 -12.890625 1.734375 -12.847656 1.828125 -12.765625 C 1.921875 -12.691406 1.992188 -12.597656 2.046875 -12.484375 L 5.671875 -3.390625 C 5.753906 -3.179688 5.832031 -2.957031 5.90625 -2.71875 C 5.976562 -2.476562 6.046875 -2.226562 6.109375 -1.96875 C 6.171875 -2.226562 6.234375 -2.476562 6.296875 -2.71875 C 6.367188 -2.957031 6.441406 -3.179688 6.515625 -3.390625 L 10.140625 -12.484375 C 10.179688 -12.585938 10.253906 -12.679688 10.359375 -12.765625 C 10.460938 -12.847656 10.585938 -12.890625 10.734375 -12.890625 Z M 12.125 -12.890625 "/></g></g></g><g fill="#ffffff" fill-opacity="1"><g transform="translate(199.125657, 239.823032)"><g><path d="M 9.609375 -1.421875 L 9.59375 0 L 1.640625 0 L 1.640625 -12.890625 L 9.59375 -12.890625 L 9.59375 -11.46875 L 3.390625 -11.46875 L 3.390625 -7.1875 L 8.421875 -7.1875 L 8.421875 -5.828125 L 3.390625 -5.828125 L 3.390625 -1.421875 Z M 9.609375 -1.421875 "/></g></g></g><g fill="#ffffff" fill-opacity="1"><g transform="translate(210.852727, 239.823032)"><g><path d="M 5.21875 -6.65625 C 5.71875 -6.65625 6.160156 -6.710938 6.546875 -6.828125 C 6.941406 -6.953125 7.269531 -7.125 7.53125 -7.34375 C 7.789062 -7.570312 7.984375 -7.84375 8.109375 -8.15625 C 8.242188 -8.46875 8.3125 -8.816406 8.3125 -9.203125 C 8.3125 -9.960938 8.054688 -10.535156 7.546875 -10.921875 C 7.046875 -11.316406 6.296875 -11.515625 5.296875 -11.515625 L 3.390625 -11.515625 L 3.390625 -6.65625 Z M 11.171875 0 L 9.625 0 C 9.3125 0 9.078125 -0.125 8.921875 -0.375 L 5.578125 -4.984375 C 5.472656 -5.117188 5.363281 -5.21875 5.25 -5.28125 C 5.132812 -5.34375 4.953125 -5.375 4.703125 -5.375 L 3.390625 -5.375 L 3.390625 0 L 1.640625 0 L 1.640625 -12.890625 L 5.296875 -12.890625 C 6.109375 -12.890625 6.8125 -12.804688 7.40625 -12.640625 C 8 -12.484375 8.488281 -12.25 8.875 -11.9375 C 9.257812 -11.625 9.546875 -11.242188 9.734375 -10.796875 C 9.921875 -10.359375 10.015625 -9.867188 10.015625 -9.328125 C 10.015625 -8.867188 9.941406 -8.441406 9.796875 -8.046875 C 9.648438 -7.648438 9.441406 -7.289062 9.171875 -6.96875 C 8.898438 -6.65625 8.566406 -6.390625 8.171875 -6.171875 C 7.785156 -5.953125 7.34375 -5.785156 6.84375 -5.671875 C 7.0625 -5.546875 7.253906 -5.363281 7.421875 -5.125 Z M 11.171875 0 "/></g></g></g><g fill="#ffffff" fill-opacity="1"><g transform="translate(223.461803, 239.823032)"><g><path d="M 12.828125 -6.4375 C 12.828125 -5.476562 12.671875 -4.601562 12.359375 -3.8125 C 12.054688 -3.019531 11.625 -2.335938 11.0625 -1.765625 C 10.507812 -1.203125 9.84375 -0.765625 9.0625 -0.453125 C 8.28125 -0.148438 7.414062 0 6.46875 0 L 1.640625 0 L 1.640625 -12.890625 L 6.46875 -12.890625 C 7.414062 -12.890625 8.28125 -12.734375 9.0625 -12.421875 C 9.84375 -12.117188 10.507812 -11.679688 11.0625 -11.109375 C 11.625 -10.546875 12.054688 -9.867188 12.359375 -9.078125 C 12.671875 -8.285156 12.828125 -7.40625 12.828125 -6.4375 Z M 11.03125 -6.4375 C 11.03125 -7.226562 10.921875 -7.9375 10.703125 -8.5625 C 10.492188 -9.1875 10.191406 -9.710938 9.796875 -10.140625 C 9.398438 -10.578125 8.914062 -10.910156 8.34375 -11.140625 C 7.78125 -11.367188 7.15625 -11.484375 6.46875 -11.484375 L 3.390625 -11.484375 L 3.390625 -1.40625 L 6.46875 -1.40625 C 7.15625 -1.40625 7.78125 -1.519531 8.34375 -1.75 C 8.914062 -1.976562 9.398438 -2.304688 9.796875 -2.734375 C 10.191406 -3.171875 10.492188 -3.695312 10.703125 -4.3125 C 10.921875 -4.9375 11.03125 -5.644531 11.03125 -6.4375 Z M 11.03125 -6.4375 "/></g></g></g><g fill="#ffffff" fill-opacity="1"><g transform="translate(238.482893, 239.823032)"><g><path d="M 9.609375 -1.421875 L 9.59375 0 L 1.640625 0 L 1.640625 -12.890625 L 9.59375 -12.890625 L 9.59375 -11.46875 L 3.390625 -11.46875 L 3.390625 -7.1875 L 8.421875 -7.1875 L 8.421875 -5.828125 L 3.390625 -5.828125 L 3.390625 -1.421875 Z M 9.609375 -1.421875 "/></g></g></g><g fill="#ffffff" fill-opacity="1"><g transform="translate(111.120551, 264.573031)"><g><path d="M 10.703125 -2.65625 C 10.796875 -2.65625 10.878906 -2.617188 10.953125 -2.546875 L 11.640625 -1.796875 C 11.117188 -1.179688 10.476562 -0.703125 9.71875 -0.359375 C 8.96875 -0.0234375 8.0625 0.140625 7 0.140625 C 6.070312 0.140625 5.226562 -0.015625 4.46875 -0.328125 C 3.71875 -0.648438 3.070312 -1.101562 2.53125 -1.6875 C 2 -2.269531 1.585938 -2.960938 1.296875 -3.765625 C 1.003906 -4.578125 0.859375 -5.46875 0.859375 -6.4375 C 0.859375 -7.414062 1.007812 -8.304688 1.3125 -9.109375 C 1.613281 -9.921875 2.039062 -10.617188 2.59375 -11.203125 C 3.15625 -11.785156 3.820312 -12.238281 4.59375 -12.5625 C 5.375 -12.882812 6.226562 -13.046875 7.15625 -13.046875 C 8.082031 -13.046875 8.894531 -12.894531 9.59375 -12.59375 C 10.289062 -12.300781 10.910156 -11.90625 11.453125 -11.40625 L 10.875 -10.609375 C 10.832031 -10.546875 10.78125 -10.492188 10.71875 -10.453125 C 10.664062 -10.410156 10.59375 -10.390625 10.5 -10.390625 C 10.394531 -10.390625 10.265625 -10.445312 10.109375 -10.5625 C 9.953125 -10.6875 9.742188 -10.816406 9.484375 -10.953125 C 9.234375 -11.097656 8.921875 -11.226562 8.546875 -11.34375 C 8.171875 -11.46875 7.707031 -11.53125 7.15625 -11.53125 C 6.488281 -11.53125 5.878906 -11.414062 5.328125 -11.1875 C 4.773438 -10.957031 4.296875 -10.617188 3.890625 -10.171875 C 3.492188 -9.734375 3.1875 -9.195312 2.96875 -8.5625 C 2.75 -7.9375 2.640625 -7.226562 2.640625 -6.4375 C 2.640625 -5.632812 2.753906 -4.914062 2.984375 -4.28125 C 3.210938 -3.65625 3.523438 -3.125 3.921875 -2.6875 C 4.328125 -2.257812 4.800781 -1.929688 5.34375 -1.703125 C 5.882812 -1.472656 6.46875 -1.359375 7.09375 -1.359375 C 7.476562 -1.359375 7.828125 -1.378906 8.140625 -1.421875 C 8.453125 -1.472656 8.738281 -1.546875 9 -1.640625 C 9.257812 -1.734375 9.5 -1.851562 9.71875 -2 C 9.945312 -2.144531 10.171875 -2.320312 10.390625 -2.53125 C 10.492188 -2.613281 10.597656 -2.65625 10.703125 -2.65625 Z M 10.703125 -2.65625 "/></g></g></g><g fill="#ffffff" fill-opacity="1"><g transform="translate(124.476641, 264.573031)"><g><path d="M 13.5625 -6.4375 C 13.5625 -5.476562 13.40625 -4.59375 13.09375 -3.78125 C 12.789062 -2.976562 12.359375 -2.285156 11.796875 -1.703125 C 11.242188 -1.117188 10.578125 -0.664062 9.796875 -0.34375 C 9.015625 -0.0195312 8.148438 0.140625 7.203125 0.140625 C 6.253906 0.140625 5.390625 -0.0195312 4.609375 -0.34375 C 3.828125 -0.664062 3.15625 -1.117188 2.59375 -1.703125 C 2.039062 -2.285156 1.609375 -2.976562 1.296875 -3.78125 C 0.992188 -4.59375 0.84375 -5.476562 0.84375 -6.4375 C 0.84375 -7.40625 0.992188 -8.289062 1.296875 -9.09375 C 1.609375 -9.90625 2.039062 -10.601562 2.59375 -11.1875 C 3.15625 -11.769531 3.828125 -12.222656 4.609375 -12.546875 C 5.390625 -12.878906 6.253906 -13.046875 7.203125 -13.046875 C 8.148438 -13.046875 9.015625 -12.878906 9.796875 -12.546875 C 10.578125 -12.222656 11.242188 -11.769531 11.796875 -11.1875 C 12.359375 -10.601562 12.789062 -9.90625 13.09375 -9.09375 C 13.40625 -8.289062 13.5625 -7.40625 13.5625 -6.4375 Z M 11.765625 -6.4375 C 11.765625 -7.226562 11.65625 -7.9375 11.4375 -8.5625 C 11.226562 -9.195312 10.925781 -9.734375 10.53125 -10.171875 C 10.132812 -10.609375 9.65625 -10.941406 9.09375 -11.171875 C 8.53125 -11.410156 7.898438 -11.53125 7.203125 -11.53125 C 6.515625 -11.53125 5.882812 -11.410156 5.3125 -11.171875 C 4.75 -10.941406 4.269531 -10.609375 3.875 -10.171875 C 3.476562 -9.734375 3.171875 -9.195312 2.953125 -8.5625 C 2.734375 -7.9375 2.625 -7.226562 2.625 -6.4375 C 2.625 -5.644531 2.734375 -4.9375 2.953125 -4.3125 C 3.171875 -3.6875 3.476562 -3.15625 3.875 -2.71875 C 4.269531 -2.28125 4.75 -1.945312 5.3125 -1.71875 C 5.882812 -1.488281 6.515625 -1.375 7.203125 -1.375 C 7.898438 -1.375 8.53125 -1.488281 9.09375 -1.71875 C 9.65625 -1.945312 10.132812 -2.28125 10.53125 -2.71875 C 10.925781 -3.15625 11.226562 -3.6875 11.4375 -4.3125 C 11.65625 -4.9375 11.765625 -5.644531 11.765625 -6.4375 Z M 11.765625 -6.4375 "/></g></g></g><g fill="#ffffff" fill-opacity="1"><g transform="translate(140.217737, 264.573031)"><g><path d="M 12.09375 -12.890625 L 12.09375 0 L 11.21875 0 C 11.082031 0 10.96875 -0.0195312 10.875 -0.0625 C 10.78125 -0.113281 10.691406 -0.195312 10.609375 -0.3125 L 3.140625 -10.03125 C 3.148438 -9.882812 3.15625 -9.738281 3.15625 -9.59375 C 3.164062 -9.445312 3.171875 -9.3125 3.171875 -9.1875 L 3.171875 0 L 1.640625 0 L 1.640625 -12.890625 L 2.546875 -12.890625 C 2.617188 -12.890625 2.679688 -12.882812 2.734375 -12.875 C 2.796875 -12.875 2.847656 -12.863281 2.890625 -12.84375 C 2.929688 -12.820312 2.972656 -12.789062 3.015625 -12.75 C 3.054688 -12.707031 3.101562 -12.65625 3.15625 -12.59375 L 10.609375 -2.890625 C 10.597656 -3.046875 10.585938 -3.195312 10.578125 -3.34375 C 10.566406 -3.488281 10.5625 -3.628906 10.5625 -3.765625 L 10.5625 -12.890625 Z M 12.09375 -12.890625 "/></g></g></g><g fill="#ffffff" fill-opacity="1"><g transform="translate(155.292832, 264.573031)"><g><path d="M 8.25 -10.875 C 8.1875 -10.789062 8.125 -10.722656 8.0625 -10.671875 C 8 -10.628906 7.925781 -10.609375 7.84375 -10.609375 C 7.738281 -10.609375 7.613281 -10.660156 7.46875 -10.765625 C 7.332031 -10.867188 7.160156 -10.976562 6.953125 -11.09375 C 6.753906 -11.21875 6.507812 -11.332031 6.21875 -11.4375 C 5.925781 -11.539062 5.570312 -11.59375 5.15625 -11.59375 C 4.769531 -11.59375 4.425781 -11.539062 4.125 -11.4375 C 3.832031 -11.332031 3.582031 -11.1875 3.375 -11 C 3.175781 -10.820312 3.023438 -10.613281 2.921875 -10.375 C 2.816406 -10.132812 2.765625 -9.867188 2.765625 -9.578125 C 2.765625 -9.222656 2.851562 -8.925781 3.03125 -8.6875 C 3.207031 -8.445312 3.441406 -8.242188 3.734375 -8.078125 C 4.023438 -7.910156 4.351562 -7.765625 4.71875 -7.640625 C 5.09375 -7.523438 5.472656 -7.398438 5.859375 -7.265625 C 6.242188 -7.128906 6.617188 -6.976562 6.984375 -6.8125 C 7.359375 -6.644531 7.691406 -6.4375 7.984375 -6.1875 C 8.273438 -5.9375 8.507812 -5.628906 8.6875 -5.265625 C 8.863281 -4.898438 8.953125 -4.453125 8.953125 -3.921875 C 8.953125 -3.347656 8.851562 -2.8125 8.65625 -2.3125 C 8.46875 -1.820312 8.1875 -1.394531 7.8125 -1.03125 C 7.445312 -0.664062 6.992188 -0.378906 6.453125 -0.171875 C 5.921875 0.0351562 5.316406 0.140625 4.640625 0.140625 C 3.796875 0.140625 3.03125 -0.0078125 2.34375 -0.3125 C 1.664062 -0.613281 1.082031 -1.019531 0.59375 -1.53125 L 1.09375 -2.359375 C 1.144531 -2.429688 1.203125 -2.488281 1.265625 -2.53125 C 1.335938 -2.570312 1.414062 -2.59375 1.5 -2.59375 C 1.582031 -2.59375 1.671875 -2.5625 1.765625 -2.5 C 1.867188 -2.4375 1.984375 -2.359375 2.109375 -2.265625 C 2.234375 -2.171875 2.375 -2.066406 2.53125 -1.953125 C 2.695312 -1.835938 2.882812 -1.734375 3.09375 -1.640625 C 3.300781 -1.546875 3.535156 -1.46875 3.796875 -1.40625 C 4.054688 -1.34375 4.351562 -1.3125 4.6875 -1.3125 C 5.101562 -1.3125 5.472656 -1.363281 5.796875 -1.46875 C 6.117188 -1.582031 6.390625 -1.742188 6.609375 -1.953125 C 6.835938 -2.160156 7.007812 -2.40625 7.125 -2.6875 C 7.25 -2.976562 7.3125 -3.300781 7.3125 -3.65625 C 7.3125 -4.050781 7.222656 -4.375 7.046875 -4.625 C 6.867188 -4.875 6.632812 -5.082031 6.34375 -5.25 C 6.0625 -5.414062 5.734375 -5.554688 5.359375 -5.671875 C 4.992188 -5.785156 4.617188 -5.90625 4.234375 -6.03125 C 3.847656 -6.15625 3.46875 -6.296875 3.09375 -6.453125 C 2.71875 -6.617188 2.382812 -6.832031 2.09375 -7.09375 C 1.8125 -7.351562 1.582031 -7.675781 1.40625 -8.0625 C 1.226562 -8.445312 1.140625 -8.925781 1.140625 -9.5 C 1.140625 -9.945312 1.226562 -10.382812 1.40625 -10.8125 C 1.582031 -11.238281 1.835938 -11.617188 2.171875 -11.953125 C 2.515625 -12.285156 2.929688 -12.550781 3.421875 -12.75 C 3.921875 -12.945312 4.492188 -13.046875 5.140625 -13.046875 C 5.859375 -13.046875 6.507812 -12.929688 7.09375 -12.703125 C 7.6875 -12.472656 8.210938 -12.140625 8.671875 -11.703125 Z M 8.25 -10.875 "/></g></g></g><g fill="#ffffff" fill-opacity="1"><g transform="translate(166.389904, 264.573031)"><g><path d="M 10.375 -11.4375 L 6.1875 -11.4375 L 6.1875 0 L 4.453125 0 L 4.453125 -11.4375 L 0.265625 -11.4375 L 0.265625 -12.890625 L 10.375 -12.890625 Z M 10.375 -11.4375 "/></g></g></g><g fill="#ffffff" fill-opacity="1"><g transform="translate(178.350982, 264.573031)"><g><path d="M 5.21875 -6.65625 C 5.71875 -6.65625 6.160156 -6.710938 6.546875 -6.828125 C 6.941406 -6.953125 7.269531 -7.125 7.53125 -7.34375 C 7.789062 -7.570312 7.984375 -7.84375 8.109375 -8.15625 C 8.242188 -8.46875 8.3125 -8.816406 8.3125 -9.203125 C 8.3125 -9.960938 8.054688 -10.535156 7.546875 -10.921875 C 7.046875 -11.316406 6.296875 -11.515625 5.296875 -11.515625 L 3.390625 -11.515625 L 3.390625 -6.65625 Z M 11.171875 0 L 9.625 0 C 9.3125 0 9.078125 -0.125 8.921875 -0.375 L 5.578125 -4.984375 C 5.472656 -5.117188 5.363281 -5.21875 5.25 -5.28125 C 5.132812 -5.34375 4.953125 -5.375 4.703125 -5.375 L 3.390625 -5.375 L 3.390625 0 L 1.640625 0 L 1.640625 -12.890625 L 5.296875 -12.890625 C 6.109375 -12.890625 6.8125 -12.804688 7.40625 -12.640625 C 8 -12.484375 8.488281 -12.25 8.875 -11.9375 C 9.257812 -11.625 9.546875 -11.242188 9.734375 -10.796875 C 9.921875 -10.359375 10.015625 -9.867188 10.015625 -9.328125 C 10.015625 -8.867188 9.941406 -8.441406 9.796875 -8.046875 C 9.648438 -7.648438 9.441406 -7.289062 9.171875 -6.96875 C 8.898438 -6.65625 8.566406 -6.390625 8.171875 -6.171875 C 7.785156 -5.953125 7.34375 -5.785156 6.84375 -5.671875 C 7.0625 -5.546875 7.253906 -5.363281 7.421875 -5.125 Z M 11.171875 0 "/></g></g></g><g fill="#ffffff" fill-opacity="1"><g transform="translate(190.960058, 264.573031)"><g><path d="M 6.625 -1.390625 C 7.15625 -1.390625 7.628906 -1.476562 8.046875 -1.65625 C 8.472656 -1.832031 8.832031 -2.082031 9.125 -2.40625 C 9.414062 -2.726562 9.632812 -3.113281 9.78125 -3.5625 C 9.9375 -4.019531 10.015625 -4.519531 10.015625 -5.0625 L 10.015625 -12.890625 L 11.75 -12.890625 L 11.75 -5.0625 C 11.75 -4.3125 11.628906 -3.617188 11.390625 -2.984375 C 11.160156 -2.347656 10.820312 -1.796875 10.375 -1.328125 C 9.9375 -0.867188 9.398438 -0.503906 8.765625 -0.234375 C 8.128906 0.0234375 7.414062 0.15625 6.625 0.15625 C 5.832031 0.15625 5.117188 0.0234375 4.484375 -0.234375 C 3.847656 -0.503906 3.304688 -0.867188 2.859375 -1.328125 C 2.421875 -1.796875 2.082031 -2.347656 1.84375 -2.984375 C 1.601562 -3.617188 1.484375 -4.3125 1.484375 -5.0625 L 1.484375 -12.890625 L 3.21875 -12.890625 L 3.21875 -5.0625 C 3.21875 -4.519531 3.296875 -4.023438 3.453125 -3.578125 C 3.609375 -3.128906 3.828125 -2.742188 4.109375 -2.421875 C 4.398438 -2.097656 4.757812 -1.84375 5.1875 -1.65625 C 5.613281 -1.476562 6.09375 -1.390625 6.625 -1.390625 Z M 6.625 -1.390625 "/></g></g></g><g fill="#ffffff" fill-opacity="1"><g transform="translate(205.531155, 264.573031)"><g><path d="M 10.703125 -2.65625 C 10.796875 -2.65625 10.878906 -2.617188 10.953125 -2.546875 L 11.640625 -1.796875 C 11.117188 -1.179688 10.476562 -0.703125 9.71875 -0.359375 C 8.96875 -0.0234375 8.0625 0.140625 7 0.140625 C 6.070312 0.140625 5.226562 -0.015625 4.46875 -0.328125 C 3.71875 -0.648438 3.070312 -1.101562 2.53125 -1.6875 C 2 -2.269531 1.585938 -2.960938 1.296875 -3.765625 C 1.003906 -4.578125 0.859375 -5.46875 0.859375 -6.4375 C 0.859375 -7.414062 1.007812 -8.304688 1.3125 -9.109375 C 1.613281 -9.921875 2.039062 -10.617188 2.59375 -11.203125 C 3.15625 -11.785156 3.820312 -12.238281 4.59375 -12.5625 C 5.375 -12.882812 6.226562 -13.046875 7.15625 -13.046875 C 8.082031 -13.046875 8.894531 -12.894531 9.59375 -12.59375 C 10.289062 -12.300781 10.910156 -11.90625 11.453125 -11.40625 L 10.875 -10.609375 C 10.832031 -10.546875 10.78125 -10.492188 10.71875 -10.453125 C 10.664062 -10.410156 10.59375 -10.390625 10.5 -10.390625 C 10.394531 -10.390625 10.265625 -10.445312 10.109375 -10.5625 C 9.953125 -10.6875 9.742188 -10.816406 9.484375 -10.953125 C 9.234375 -11.097656 8.921875 -11.226562 8.546875 -11.34375 C 8.171875 -11.46875 7.707031 -11.53125 7.15625 -11.53125 C 6.488281 -11.53125 5.878906 -11.414062 5.328125 -11.1875 C 4.773438 -10.957031 4.296875 -10.617188 3.890625 -10.171875 C 3.492188 -9.734375 3.1875 -9.195312 2.96875 -8.5625 C 2.75 -7.9375 2.640625 -7.226562 2.640625 -6.4375 C 2.640625 -5.632812 2.753906 -4.914062 2.984375 -4.28125 C 3.210938 -3.65625 3.523438 -3.125 3.921875 -2.6875 C 4.328125 -2.257812 4.800781 -1.929688 5.34375 -1.703125 C 5.882812 -1.472656 6.46875 -1.359375 7.09375 -1.359375 C 7.476562 -1.359375 7.828125 -1.378906 8.140625 -1.421875 C 8.453125 -1.472656 8.738281 -1.546875 9 -1.640625 C 9.257812 -1.734375 9.5 -1.851562 9.71875 -2 C 9.945312 -2.144531 10.171875 -2.320312 10.390625 -2.53125 C 10.492188 -2.613281 10.597656 -2.65625 10.703125 -2.65625 Z M 10.703125 -2.65625 "/></g></g></g><g fill="#ffffff" fill-opacity="1"><g transform="translate(218.887245, 264.573031)"><g><path d="M 10.375 -11.4375 L 6.1875 -11.4375 L 6.1875 0 L 4.453125 0 L 4.453125 -11.4375 L 0.265625 -11.4375 L 0.265625 -12.890625 L 10.375 -12.890625 Z M 10.375 -11.4375 "/></g></g></g><g fill="#ffffff" fill-opacity="1"><g transform="translate(230.848323, 264.573031)"><g><path d="M 13.5625 -6.4375 C 13.5625 -5.476562 13.40625 -4.59375 13.09375 -3.78125 C 12.789062 -2.976562 12.359375 -2.285156 11.796875 -1.703125 C 11.242188 -1.117188 10.578125 -0.664062 9.796875 -0.34375 C 9.015625 -0.0195312 8.148438 0.140625 7.203125 0.140625 C 6.253906 0.140625 5.390625 -0.0195312 4.609375 -0.34375 C 3.828125 -0.664062 3.15625 -1.117188 2.59375 -1.703125 C 2.039062 -2.285156 1.609375 -2.976562 1.296875 -3.78125 C 0.992188 -4.59375 0.84375 -5.476562 0.84375 -6.4375 C 0.84375 -7.40625 0.992188 -8.289062 1.296875 -9.09375 C 1.609375 -9.90625 2.039062 -10.601562 2.59375 -11.1875 C 3.15625 -11.769531 3.828125 -12.222656 4.609375 -12.546875 C 5.390625 -12.878906 6.253906 -13.046875 7.203125 -13.046875 C 8.148438 -13.046875 9.015625 -12.878906 9.796875 -12.546875 C 10.578125 -12.222656 11.242188 -11.769531 11.796875 -11.1875 C 12.359375 -10.601562 12.789062 -9.90625 13.09375 -9.09375 C 13.40625 -8.289062 13.5625 -7.40625 13.5625 -6.4375 Z M 11.765625 -6.4375 C 11.765625 -7.226562 11.65625 -7.9375 11.4375 -8.5625 C 11.226562 -9.195312 10.925781 -9.734375 10.53125 -10.171875 C 10.132812 -10.609375 9.65625 -10.941406 9.09375 -11.171875 C 8.53125 -11.410156 7.898438 -11.53125 7.203125 -11.53125 C 6.515625 -11.53125 5.882812 -11.410156 5.3125 -11.171875 C 4.75 -10.941406 4.269531 -10.609375 3.875 -10.171875 C 3.476562 -9.734375 3.171875 -9.195312 2.953125 -8.5625 C 2.734375 -7.9375 2.625 -7.226562 2.625 -6.4375 C 2.625 -5.644531 2.734375 -4.9375 2.953125 -4.3125 C 3.171875 -3.6875 3.476562 -3.15625 3.875 -2.71875 C 4.269531 -2.28125 4.75 -1.945312 5.3125 -1.71875 C 5.882812 -1.488281 6.515625 -1.375 7.203125 -1.375 C 7.898438 -1.375 8.53125 -1.488281 9.09375 -1.71875 C 9.65625 -1.945312 10.132812 -2.28125 10.53125 -2.71875 C 10.925781 -3.15625 11.226562 -3.6875 11.4375 -4.3125 C 11.65625 -4.9375 11.765625 -5.644531 11.765625 -6.4375 Z M 11.765625 -6.4375 "/></g></g></g><g fill="#ffffff" fill-opacity="1"><g transform="translate(246.589419, 264.573031)"><g><path d="M 5.21875 -6.65625 C 5.71875 -6.65625 6.160156 -6.710938 6.546875 -6.828125 C 6.941406 -6.953125 7.269531 -7.125 7.53125 -7.34375 C 7.789062 -7.570312 7.984375 -7.84375 8.109375 -8.15625 C 8.242188 -8.46875 8.3125 -8.816406 8.3125 -9.203125 C 8.3125 -9.960938 8.054688 -10.535156 7.546875 -10.921875 C 7.046875 -11.316406 6.296875 -11.515625 5.296875 -11.515625 L 3.390625 -11.515625 L 3.390625 -6.65625 Z M 11.171875 0 L 9.625 0 C 9.3125 0 9.078125 -0.125 8.921875 -0.375 L 5.578125 -4.984375 C 5.472656 -5.117188 5.363281 -5.21875 5.25 -5.28125 C 5.132812 -5.34375 4.953125 -5.375 4.703125 -5.375 L 3.390625 -5.375 L 3.390625 0 L 1.640625 0 L 1.640625 -12.890625 L 5.296875 -12.890625 C 6.109375 -12.890625 6.8125 -12.804688 7.40625 -12.640625 C 8 -12.484375 8.488281 -12.25 8.875 -11.9375 C 9.257812 -11.625 9.546875 -11.242188 9.734375 -10.796875 C 9.921875 -10.359375 10.015625 -9.867188 10.015625 -9.328125 C 10.015625 -8.867188 9.941406 -8.441406 9.796875 -8.046875 C 9.648438 -7.648438 9.441406 -7.289062 9.171875 -6.96875 C 8.898438 -6.65625 8.566406 -6.390625 8.171875 -6.171875 C 7.785156 -5.953125 7.34375 -5.785156 6.84375 -5.671875 C 7.0625 -5.546875 7.253906 -5.363281 7.421875 -5.125 Z M 11.171875 0 "/></g></g></g><g fill="#ffffff" fill-opacity="1"><g transform="translate(259.198495, 264.573031)"><g><path d="M 8.5 -4.78125 L 6.46875 -10.03125 C 6.40625 -10.1875 6.34375 -10.367188 6.28125 -10.578125 C 6.21875 -10.785156 6.15625 -11.003906 6.09375 -11.234375 C 5.96875 -10.753906 5.835938 -10.351562 5.703125 -10.03125 L 3.6875 -4.78125 Z M 12.125 0 L 10.78125 0 C 10.625 0 10.5 -0.0351562 10.40625 -0.109375 C 10.3125 -0.191406 10.238281 -0.289062 10.1875 -0.40625 L 8.984375 -3.53125 L 3.1875 -3.53125 L 1.984375 -0.40625 C 1.953125 -0.300781 1.882812 -0.207031 1.78125 -0.125 C 1.675781 -0.0390625 1.550781 0 1.40625 0 L 0.046875 0 L 5.21875 -12.890625 L 6.96875 -12.890625 Z M 12.125 0 "/></g></g></g></svg>